<?xml version="1.0" encoding="utf-8"?>
<!-- Generator: Adobe Illustrator 18.0.0, SVG Export Plug-In . SVG Version: 6.00 Build 0)  -->
<!DOCTYPE svg PUBLIC "-//W3C//DTD SVG 1.1//EN" "http://www.w3.org/Graphics/SVG/1.1/DTD/svg11.dtd">
<svg version="1.1" id="Layer_2" xmlns="http://www.w3.org/2000/svg" xmlns:xlink="http://www.w3.org/1999/xlink" x="0px" y="0px"
	 viewBox="0 0 48 48" enable-background="new 0 0 48 48" xml:space="preserve">
<title>logo</title>
<g>
	<linearGradient id="SVGID_1_" gradientUnits="userSpaceOnUse" x1="9.8669" y1="24.3188" x2="38.356" y2="24.3188">
		<stop  offset="0" style="stop-color:#6A84FF"/>
		<stop  offset="1" style="stop-color:#883FFF"/>
	</linearGradient>
	<path fill="url(#SVGID_1_)" d="M24.1,7.2c-7.9,0-14.2,6.4-14.2,14.2c0,7.9,14.2,19.9,14.2,19.9s14.2-12.1,14.2-19.9
		C38.4,13.6,32,7.2,24.1,7.2z"/>
	<g>
		<path fill="#FBB429" d="M28.7,21.1L28.6,21l-0.4-0.4l-0.1-0.1c-0.3,0.1-0.8,0.7-0.9,1l0.1,0.1l0.4,0.4l0.1,0.1
			C28.1,21.8,28.6,21.4,28.7,21.1L28.7,21.1z"/>
		<path fill="#FFFFFF" d="M28.7,21.1L28.6,21l-0.4-0.4l-0.1-0.1c-0.1,0-0.2,0.1-0.2,0.2l0.7,0.7C28.7,21.2,28.7,21.2,28.7,21.1
			L28.7,21.1L28.7,21.1z"/>
		<path fill="#FBB429" d="M29.5,23.1L29.4,23l-0.4-0.4l-0.1-0.1c-0.3,0.1-0.8,0.7-0.9,1l0.1,0.1l0.4,0.4l0.1,0.1
			C28.8,23.9,29.3,23.5,29.5,23.1L29.5,23.1z"/>
		<path fill="#FFFFFF" d="M29.5,23.1L29.4,23l-0.4-0.4l-0.1-0.1c-0.1,0-0.2,0.1-0.2,0.2l0.7,0.7C29.4,23.3,29.4,23.2,29.5,23.1
			L29.5,23.1L29.5,23.1z"/>
		<path fill="#FBB429" d="M23.6,15.9l0.1,0.1l0.4,0.4l0.1,0.1c-0.1,0.3-0.7,0.8-1,0.9l-0.1-0.1L22.7,17l-0.1-0.1
			C22.8,16.6,23.2,16,23.6,15.9L23.6,15.9z"/>
		<path fill="#FFFFFF" d="M23.6,15.9l0.1,0.1l0.4,0.4l0.1,0.1c0,0.1-0.1,0.2-0.2,0.2l-0.7-0.7C23.4,16,23.5,15.9,23.6,15.9z"/>
		<path fill="#FBB429" d="M21.5,15.2l0.1,0.1l0.4,0.4l0.1,0.1c-0.1,0.3-0.7,0.8-1,0.9l-0.1-0.1l-0.4-0.4l-0.1-0.1
			C20.8,15.9,21.2,15.3,21.5,15.2L21.5,15.2z"/>
		<g>
			<path fill="#FFFFFF" d="M21.5,15.2l0.1,0.1l0.4,0.4l0.1,0.1c0,0.1-0.1,0.2-0.1,0.2l-0.7-0.7C21.4,15.3,21.5,15.2,21.5,15.2z"/>
			<path fill="#FFFFFF" d="M20,24.9l1.3,1.8l0.4-0.5L21,24.3c0.1-0.1-0.1,0.1,0.3-0.3c0.4-0.3,2-1.8,3.5-3l4.2,6l0.4-0.4L27,19.2
				c1-0.8,1.7-1.4,1.9-1.6c0.6-0.7,1.2-1.6,0.7-2.5c-0.9-0.4-1.8,0.1-2.5,0.7c-0.2,0.2-0.9,0.9-1.6,1.9L18,15.3l-0.4,0.4l6,4.2
				c-1.2,1.5-2.7,3.1-3,3.5c-0.3,0.4-0.2,0.2-0.3,0.3L18.4,23l-0.5,0.4l1.8,1.3C19.6,25,19.7,25.1,20,24.9L20,24.9L20,24.9z"/>
		</g>
		<g>
			<path fill="#C8CACC" d="M20,24.9l1.3,1.8l0.1-0.1l-1.2-1.8L20,24.9L20,24.9L20,24.9z"/>
			<path fill="#C8CACC" d="M18.1,23.3l-0.1,0.1l1.8,1.3l0.1-0.1L18.1,23.3L18.1,23.3z"/>
			<path fill="#C8CACC" d="M24.7,21.1l4.2,6l0.1-0.1l-4.1-6L24.7,21.1z"/>
			<path fill="#C8CACC" d="M17.8,15.6l-0.1,0.1l6,4.2l0.2-0.3L17.8,15.6L17.8,15.6z"/>
		</g>
		<path fill="#15BDB1" d="M29.2,15.4c-0.1-0.1-0.2-0.1-0.3-0.2l-0.1,0.2c0.1,0,0.1,0.1,0.2,0.2c0.1,0.1,0.1,0.1,0.2,0.2l0.2-0.1
			C29.4,15.6,29.3,15.5,29.2,15.4L29.2,15.4L29.2,15.4z M28.8,15.2L28.8,15.2c-0.2,0-0.4,0-0.6,0.1c0.2,0,0.3,0,0.5,0.1L28.8,15.2z
			 M29.3,15.9L29.3,15.9c0.1,0.2,0.1,0.3,0.1,0.5c0.1-0.2,0.1-0.4,0.1-0.6L29.3,15.9z"/>
	</g>
</g>
</svg>
